<?xml version="1.0" encoding="UTF-8" standalone="no"?>
<!-- Generator: Fusion 360, Shaper Origin Export Add-In, Version 1.7.0  -->

<svg
   shaper:fusionaddin="version:1.7.0"
   width="100cm"
   height="100cm"
   version="1.1"
   x="0cm"
   y="0cm"
   viewBox="0 0 100 100"
   enable-background="new 0 0 100 100"
   xml:space="preserve"
   id="svg8"
   sodipodi:docname="Sketch1.svg"
   inkscape:version="1.3.2 (091e20e, 2023-11-25)"
   inkscape:export-filename="Sketch1.png"
   inkscape:export-xdpi="25.4"
   inkscape:export-ydpi="25.4"
   xmlns:inkscape="http://www.inkscape.org/namespaces/inkscape"
   xmlns:sodipodi="http://sodipodi.sourceforge.net/DTD/sodipodi-0.dtd"
   xmlns="http://www.w3.org/2000/svg"
   xmlns:svg="http://www.w3.org/2000/svg"
   xmlns:shaper="http://www.shapertools.com/namespaces/shaper"><defs
     id="defs8" /><sodipodi:namedview
     id="namedview8"
     pagecolor="#ffffff"
     bordercolor="#000000"
     borderopacity="0.25"
     inkscape:showpageshadow="2"
     inkscape:pageopacity="0.0"
     inkscape:pagecheckerboard="0"
     inkscape:deskcolor="#d1d1d1"
     inkscape:document-units="cm"
     inkscape:zoom="0.17615783"
     inkscape:cx="2009.5616"
     inkscape:cy="2168.51"
     inkscape:window-width="1480"
     inkscape:window-height="907"
     inkscape:window-x="0"
     inkscape:window-y="38"
     inkscape:window-maximized="0"
     inkscape:current-layer="svg8" /><path
     d="M-50,-50 L50,-50 50,50 -50,50 -50,-50z"
     transform="matrix(1,0,0,-1,50,50)"
     stroke="rgb(100,100,100)"
     stroke-width="0.0010cm"
     stroke-linecap="round"
     stroke-linejoin="round"
     fill="none"
     id="path1" /><path
     d="M-14,0 a14,14 0 1,1 28,0 a14,14 0 1,1 -28,0z"
     transform="matrix(1,0,0,-1,50,50)"
     stroke="rgb(100,100,100)"
     stroke-width="0.0010cm"
     stroke-linecap="round"
     stroke-linejoin="round"
     fill="none"
     id="path2"
     style="fill:#000000;fill-opacity:1" /><path
     d="M31.8019189,-13.7052548 A4,4 129.4970416 0,0 34.3460724,-12.7918845 L39.3460724,-12.7918845 39.3460724,-6.7918845 34.3460724,-6.7918845 A10,10 90 0,1 27.9856886,-9.0753103 A44,44 309.4970416 0,0 -0,-19.1223836 A44,44 270 0,0 -27.9856886,-9.0753103 A10,10 50.5029584 0,1 -34.3460724,-6.7918845 L-39.3460724,-6.7918845 -39.3460724,-12.7918845 -34.3460724,-12.7918845 A4,4 90 0,0 -31.8019189,-13.7052548 A50,50 230.5029584 0,1 -0,-25.1223836 A50,50 270 0,1 31.8019189,-13.7052548z"
     transform="matrix(1,0,0,-1,50,50)"
     stroke="rgb(100,100,100)"
     stroke-width="0.0010cm"
     stroke-linecap="round"
     stroke-linejoin="round"
     fill="none"
     id="path3"
     style="fill:#000000;fill-opacity:1" /><path
     d="M39.3460724,-15.4199408 L47.3460724,-9.7918845 39.3460724,-4.1638283 39.3460724,-15.4199408z"
     transform="matrix(1,0,0,-1,50,50)"
     stroke="rgb(100,100,100)"
     stroke-width="0.0010cm"
     stroke-linecap="round"
     stroke-linejoin="round"
     fill="none"
     id="path4"
     style="fill:#000000;fill-opacity:1" /><path
     d="M-39.3460724,-12.7918845 L-45.3460724,-12.7918845 -45.3460724,-6.7918845 -39.3460724,-6.7918845"
     transform="matrix(1,0,0,-1,50,50)"
     stroke="rgb(100,100,100)"
     stroke-width="0.0010cm"
     stroke-linecap="round"
     stroke-linejoin="round"
     fill="none"
     id="path5"
     style="fill:#000000;fill-opacity:1" /><path
     d="M-8,0 a8,8 0 1,1 16,0 a8,8 0 1,1 -16,0z"
     transform="matrix(1,0,0,-1,50,50)"
     stroke="rgb(100,100,100)"
     stroke-width="0.0010cm"
     stroke-linecap="round"
     stroke-linejoin="round"
     fill="none"
     id="path6"
     style="fill:#ffffff;fill-opacity:1" /><path
     d="M45.3460724,6.7918845 L39.3460724,6.7918845 34.3460724,6.7918845 A10,10 270 0,0 27.9856886,9.0753103 A44,44 50.5029584 0,1 0,19.1223836 A44,44 90 0,1 -27.9856886,9.0753103 A10,10 309.4970416 0,0 -34.3460724,6.7918845 L-39.3460724,6.7918845 -39.3460724,12.7918845 -34.3460724,12.7918845 A4,4 270 0,1 -31.8019189,13.7052548 A50,50 129.4970416 0,0 0,25.1223836 A50,50 90 0,0 31.8019189,13.7052548 A4,4 230.5029584 0,1 34.3460724,12.7918845 L39.3460724,12.7918845 45.3460724,12.7918845 45.3460724,6.7918845z"
     transform="matrix(1,0,0,-1,50,50)"
     stroke="rgb(100,100,100)"
     stroke-width="0.0010cm"
     stroke-linecap="round"
     stroke-linejoin="round"
     fill="none"
     id="path7"
     style="fill:#000000;fill-opacity:1" /><path
     d="M-39.3460724,4.1638283 L-39.3460724,15.4199408 -47.3460724,9.7918845 -39.3460724,4.1638283z"
     transform="matrix(1,0,0,-1,50,50)"
     stroke="rgb(100,100,100)"
     stroke-width="0.0010cm"
     stroke-linecap="round"
     stroke-linejoin="round"
     fill="none"
     id="path8"
     style="fill:#000000;fill-opacity:1" /></svg>
